# xmcd
#
# Track frame offsets: 
#        150
#        23377
#        43767
#        67400
#        87477
#        111120
#        129477
#        147217
#        168522
#        187462
#        207160
#
# Disc length: 3025 seconds
#
# Revision: 6
# Processed by: cddbd v1.5.2PL0 Copyright (c) Steve Scherf et al.
# Submitted via: ExactAudioCopy v1.0b3
#
DISCID=a50bcf0b
DTITLE=The Rippingtons - Let It Ripp
DYEAR=2003
DGENRE=Smooth Jazz
TTITLE0=Let It Ripp
TTITLE1=Mr. 3
TTITLE2=Lucky Charm
TTITLE3=A Private Getaway
TTITLE4=High Life
TTITLE5=Avalon
TTITLE6=Bella Luna
TTITLE7=Stingray
TTITLE8=17 Mile Drive
TTITLE9=Cast A Spell
TTITLE10=Get Over It
EXTD=YEAR: 2003
EXTT0=
EXTT1=
EXTT2=
EXTT3=
EXTT4=
EXTT5=
EXTT6=
EXTT7=
EXTT8=
EXTT9=
EXTT10=
PLAYORDER=
